<svg width="37" height="36" viewBox="0 0 37 36" fill="none" xmlns="http://www.w3.org/2000/svg">
<rect x="0.5" width="36" height="36" rx="18" fill="#386539"/>
<path d="M12.3889 18H14.8333V20.4H12.3889V18ZM29.5 10.8V27.6C29.5 28.932 28.4122 30 27.0556 30H9.94444C9.29614 30 8.67438 29.7471 8.21596 29.2971C7.75754 28.847 7.5 28.2365 7.5 27.6V10.8C7.5 9.48 8.6 8.4 9.94444 8.4H11.1667V6H13.6111V8.4H23.3889V6H25.8333V8.4H27.0556C27.7039 8.4 28.3256 8.65286 28.784 9.10294C29.2425 9.55303 29.5 10.1635 29.5 10.8ZM9.94444 13.2H27.0556V10.8H9.94444V13.2ZM27.0556 27.6V15.6H9.94444V27.6H27.0556ZM22.1667 20.4V18H24.6111V20.4H22.1667ZM17.2778 20.4V18H19.7222V20.4H17.2778ZM12.3889 22.8H14.8333V25.2H12.3889V22.8ZM22.1667 25.2V22.8H24.6111V25.2H22.1667ZM17.2778 25.2V22.8H19.7222V25.2H17.2778Z" fill="#F7FFF7"/>
</svg>
