<svg width="37" height="36" viewBox="0 0 37 36" fill="none" xmlns="http://www.w3.org/2000/svg">
<rect x="0.5" width="36" height="36" rx="18" fill="#386539"/>
<path d="M8.36667 30L6.5 28.1333L20.1667 14.4667C19.7667 13.5333 19.7111 12.4778 20 11.3C20.2889 10.1222 20.9222 9.06667 21.9 8.13333C23.0778 6.95556 24.3889 6.26667 25.8333 6.06667C27.2778 5.86667 28.4556 6.22222 29.3667 7.13333C30.2778 8.04444 30.6333 9.22222 30.4333 10.6667C30.2333 12.1111 29.5444 13.4222 28.3667 14.6C27.4333 15.5778 26.3778 16.2111 25.2 16.5C24.0222 16.7889 22.9667 16.7333 22.0333 16.3333L20.3667 18L30.5 28.1333L28.6333 30L18.5 19.9333L8.36667 30ZM12.3 18.6L8.3 14.6C7.1 13.4 6.5 11.9667 6.5 10.3C6.5 8.63333 7.1 7.2 8.3 6L16.5667 14.3333L12.3 18.6Z" fill="#F7FFF7"/>
</svg>
