<svg width="36" height="36" viewBox="0 0 36 36" fill="none" xmlns="http://www.w3.org/2000/svg">
<rect width="36" height="36" rx="18" fill="#386539"/>
<path d="M18 11.1431C17.1523 11.1431 16.3237 11.3944 15.6189 11.8654C14.9141 12.3363 14.3647 13.0057 14.0403 13.7888C13.716 14.5719 13.6311 15.4337 13.7965 16.2651C13.9618 17.0965 14.37 17.8601 14.9694 18.4595C15.5688 19.0589 16.3325 19.4671 17.1638 19.6325C17.9952 19.7978 18.857 19.713 19.6401 19.3886C20.4233 19.0642 21.0926 18.5149 21.5636 17.81C22.0345 17.1052 22.2859 16.2766 22.2859 15.4289C22.283 14.2931 21.8306 13.2046 21.0274 12.4015C20.2243 11.5983 19.1358 11.1459 18 11.1431V11.1431ZM18 18.0005C17.4914 18.0005 16.9942 17.8496 16.5713 17.5671C16.1484 17.2845 15.8188 16.8829 15.6242 16.413C15.4296 15.9431 15.3786 15.4261 15.4779 14.9273C15.5771 14.4284 15.822 13.9702 16.1816 13.6106C16.5413 13.251 16.9995 13.006 17.4983 12.9068C17.9971 12.8076 18.5142 12.8585 18.9841 13.0532C19.4539 13.2478 19.8556 13.5774 20.1381 14.0003C20.4207 14.4232 20.5715 14.9203 20.5715 15.4289C20.5687 16.1101 20.2969 16.7625 19.8152 17.2442C19.3336 17.7258 18.6811 17.9976 18 18.0005ZM18 6C15.5001 6.00284 13.1035 6.99715 11.3358 8.7648C9.5682 10.5325 8.57388 12.9291 8.57104 15.4289C8.57104 18.7934 10.1247 22.3613 13.0712 25.7365C14.3957 27.2653 15.8832 28.6449 17.5071 29.8509C17.6531 29.9481 17.8246 30 18 30C18.1754 30 18.3469 29.9481 18.4929 29.8509C20.1215 28.6468 21.6127 27.267 22.9395 25.7365C25.8753 22.3613 27.4289 18.7934 27.4289 15.4289C27.4261 12.9291 26.4318 10.5325 24.6641 8.7648C22.8965 6.99715 20.4998 6.00284 18 6V6ZM18 28.0723C16.2321 26.6794 10.2854 21.5577 10.2854 15.4289C10.2854 13.3829 11.0982 11.4207 12.5449 9.9739C13.9917 8.52714 15.9539 7.71435 18 7.71435C20.046 7.71435 22.0083 8.52714 23.455 9.9739C24.9018 11.4207 25.7146 13.3829 25.7146 15.4289C25.7146 21.5577 19.7679 26.6794 18 28.0723Z" fill="#F7FFF7"/>
</svg>
