<?xml version="1.0" encoding="UTF-8"?>
<svg id="Joy_Favicon_RVB_Couleurs" xmlns="http://www.w3.org/2000/svg" viewBox="0 0 646 652">
  <defs>
    <style>
      .cls-1 {
        fill: #53894b;
      }

      .cls-1, .cls-2, .cls-3 {
        stroke-miterlimit: 10;
      }

      .cls-1, .cls-2, .cls-3, .cls-4, .cls-5 {
        stroke: #386539;
      }

      .cls-1, .cls-3 {
        stroke-width: 1.23px;
      }

      .cls-2 {
        fill: #386539;
      }

      .cls-3 {
        fill: #65a259;
      }

      .cls-4 {
        fill: #8fb652;
      }

      .cls-4, .cls-5 {
        stroke-linecap: round;
        stroke-linejoin: round;
        stroke-width: 3.68px;
      }

      .cls-5 {
        fill: #fff;
      }
    </style>
  </defs>
  <path class="cls-4" d="M430.24,292.51c-23.84,25.84-39.73,58.34-53.79,85.18-17.46,33.31-50.65,97.1-92.16,98.3-22.15,.63-44.11-16.62-48.29-29.59,9.09,6.65,21.06,11.57,33.08,11.23,41.51-1.19,74.7-64.99,92.16-98.3,12.98-24.76,28.79-55.87,48.56-79.25-.41,2.45,18.39,.64,18.72,.91,.12,.11,1.56,11.29,1.72,11.51Z"/>
  <path class="cls-5" d="M401.71,290.34c-1.54,1.93-3.53,4.86-7.5,10.73,0,0-5.96,8.81-11.5,17.92-7.58,12.47-10.95,18.92-21.73,39.79-16.91,32.73-49.94,97.11-92.16,98.3-12.02,.34-23.99-4.58-33.08-11.23-.68-2.07-.89-4.04-.59-5.8,2.43-13.8,35.69-8.26,51.69-32.64,14.33-21.83,3.65-50.64,1.98-54.98-4.5-11.8-11.64-20.73-19.48-27.46-17.78-15.27-39.16-19.22-41.35-19.59v-.02c-2.91-2.76-9.99-9.82-8.29-12.74,1.28-2.19,6.75-1.45,8.36-1.23,4.29,.59,6.87,2.23,11.61,4.75,8.06,4.29,12.09,6.43,13.22,5.75,5.21-3.17-12.29-37.96-8.62-40.09,3.77-2.19,25.06,33.03,33.62,29.46,6.93-2.89-1.4-28.28,8.19-33.19,5.14-2.64,14.13,1.3,16.64,7.08,2.42,5.57-2.16,10.18-5.05,18.45-5.15,14.76,1.31,29.3,11.21,51.56,7.81,17.56,11.7,26.86,17.24,26.7,11.69-.34,30.2-30.88,28.98-61.99-.79-19.98-9.56-35.54-1.77-42.14,3.41-2.89,9.48-3.64,12.64-1.25,2.61,1.97,2.52,5.51,2.87,14.66,.51,13.28,.79,19.94,2.2,20.69,2.43,1.29,9.32-3.19,29.98-31.61,.33,6.17,1.68,12.54,5.91,14.52,2.53,1.18,4.85,.18,5.49,1.48,1.1,2.22-4.06,5.84-10.72,14.14Z"/>
  <path class="cls-3" d="M467.74,258.28c-.03,1.88,.43,3.98,.29,5.78-.09,1.17-.32,2.26-.84,3.32-.61,1.24,.14,1.9,.94,2.91,.4,.5-.97-.89-1.25-1.56,0-.2-.02-.41-.03-.61-.06-.62-.17-1.24-.34-1.74-.02-.07-.04-.12-.07-.19,.01-.21,.02-.44,.03-.66,.01-.1,.02-.19,.02-.29,.02-.53,0-.98-.32-1.53-.39-.69-.84-1.27-1.15-2.01-.08-.18-.15-.37-.22-.55-.47-1.24-.87-2.55-1.81-3.51-.61-.63-1.42-1.1-1.75-1.91-.25-.64-.14-1.37-.28-2.05-.72-3.83-4.35-3.32-7.2-3.5-3.68-.23-7.35-.72-10.98-1.39-7.51-1.4-14.85-3.63-22.06-6.18-14.43-5.11-28.38-11.59-43.01-16.1-32.9-10.15-67.9-9.75-102.26-9.25-12.92,.19-26.42,.52-37.8,6.79-6.5,3.59-11.92,8.92-18.17,12.95-6.39,4.12-13.21,6.08-20.66,4.5-.55,1-.68,2.28-.62,3.48,.01,.29,.04,.54,.11,.76,.01,.07,.03,.1,.05,.14,.01,.02,.02,.06,.01,.06-.01-.01-.02-.02-.03-.03-.02-.02-.05-.05-.09-.06-.49-.26-1.21,.19-1.84-.33-.69-.57-.24-1.44-.87-1.92-.62-.47-1.2,.21-2.65,.01,0,0-.29,.08-.73,.14-.22,.02-.41,.03-.57,.03h-.34c-.15,0-.31-.01-.46-.03-.08-.01-.17-.02-.24-.03-.13-.02-.26-.06-.4-.1-.09-.03-.17-.07-.24-.11-.04-.01-.08-.03-.12-.06-.01-.01-.02-.01-.03-.02-.18-.11-.25-.21-.46-.32-4.22-2.07-1.26-13.14,2.13-15.08,2.26-1.29,5.55-.29,7.51-1.58,2.53-1.67,1.81-6.83,4.54-9.28,2.34-2.11,4.48-1.19,7.15-1.84,2.1-.51,4.79-1.22,5.75-3.41,.88-1.98,.31-4.41,1.22-6.37,.71-1.53,2.23-2.54,3.82-2.99,3.8-1.09,7.73-1.24,11.57-2.58,1.37-.48,3.27-1.49,4.06-2.81,1.02-1.7,.06-3.63,2.38-4.74,3.46-1.65,7.06,.83,10.55-.86,3.37-1.62,5.6-5.07,9.13-6.44,3.72-1.44,7.59-1.79,11.51-1.32,2.73,.32,4.44-1.18,6.44-2.82,2.87-2.35,3.8-3.62,7.93-2.22,1.83,.62,3.61,1.45,5.52,1.66,3.78,.42,4.58-2.9,8.08-.71,3.3,2.07,4.09,2.22,7.4,.18,2.57-1.58,6.67-4.35,9.87-3.81,2.95,.51,3.57,4.08,7.42,4.03,2.44-.03,4.79-.99,7.22-1.12,2.6-.14,4.88,1.5,7.39,1.3,1.75-.14,3.54-1.96,5.32-1.16,2.59,1.17,2.13,5.63,5.95,3.05,1.17-.79,1.45-2.22,2.64-2.88,1.54-.86,4.39-.73,6-.19,2.47,.82,4.18,3.07,6.37,4.36,2.29,1.35,4.7,2.02,7.29,2.47,2.5,.43,4.35-.72,6.68-1.5,2.4-.8,4.84-1.19,7.29-.32,1.36,.48,2.58,1.31,3.9,1.89,2.86,1.26,6.1-.04,8.96,1.6,1.86,1.07,2.05,3.08,3.4,4.51,1.05,1.11,3.25,1.93,4.72,2.02,1.83,.1,3.44-.89,5.19-.73,2.05,.19,6.7,1.54,8.19,3.08,1.57,1.63,.75,4.03,3.36,4.73,2.97,.8,5.5,3.1,6.13,6.27,.14,.68,.19,1.39,.43,2.04,.71,1.88,3.26,1.99,4.9,1.69,.99-.18,2.1-.35,3.1-.02,.96,.3,1.18,.96,1.6,1.82,.51,1.02,.9,2.17,1.63,3.05,.56,.68,1.43,1.02,1.94,1.71,1.48,1.98,1.46,4.35,3.73,5.88,1.53,1.03,4.06,.84,5.31,1.98s1.4,2.66,3.21,3.56c1.54,.77,3.24,1.2,4.66,2.18,3.55,2.46,.9,5.29,1.91,8.49,.72,2.28,2.7,2.63,4.13,4.16,1.25,1.33,1.9,3.74,2.48,5.48,.56,1.67,.77,3.52,.25,5.2-.21,.7-.55,1.36-.71,2.08-.11,.48-.16,.99-.17,1.51Z"/>
  <path class="cls-1" d="M468.91,266.52c-.02,.3-.09,.6-.21,.86-7.04-.27-14.79,2.61-22.04,2.85-7.95,.26-15.91-.35-23.8-1.39-15.75-2.09-31.18-5.96-46.76-8.95-51.54-9.91-105.11-9.24-156.39,1.96-.74,2.16,.35,4.79,2.4,5.8-8.91,3.18-18.42,4.72-27.89,4.51-3.35-.07-6.92-.45-9.5-2.58-4.05-3.35-3.99-9.63-2.31-14.59,1.12-3.3,2.83-6.37,3.95-9.67,.72-2.12,.61-5.66,2.75-6.88,1.14-.65,2.52-.64,3.83-.68,2.34-.06,4.75-.32,6.79-1.45,4.03-2.24,3.41-10.03,7.85-10.62,1.56-.21,3.18-.22,4.64-.8,2.16-.86,2-3.14,3.61-4.02,1.11-.6,2.34-.48,3.55-.56s2.35-.44,3.42-.87c1.79-.73,3.41-1.86,4.7-3.29,1.11-1.24,2.53-1.89,2.75-3.71,.13-1.13-.02-2.32,.39-3.38,.5-1.29,1.75-2.18,3.08-2.58,1.15-.35,2.38-.41,3.57-.39,.95,.01,1.19,.38,1.83,1.06,.17,.18,.36,.36,.54,.48,.51,.39,1.05,.59,1.67,.37,.06-.02,.12-.05,.17-.07,.6-.28,.86-.8,.99-1.42,.16-.8-.05-1.25,.58-1.76,.82-.66,2.1-1.06,3.05-1.53,1.2-.6,2.47-1.22,3.8-1.11,1.06,.09,2.02,.62,2.94,1.14,1.06,.6,2.12,1.2,3.18,1.8,1.05,.59,2.09,1.49,3.38,1.07,1.38-.45,2.65-1.49,4.05-2,1.59-.58,3.26-.97,4.95-1.15,1.06-.11,2.11-.05,3.17-.08,.94-.03,1.45,.18,2.36,.43,1.89,.52,3.93,.22,5.77-.36,2.12-.66,4.13-1.6,6.25-2.27,3.31-1.05,6.32,1.88,8.55,4.01,1.8,1.71,3.6,3.48,5.9,4.5,1.29,.57,2.23-.26,3.4-.89s2.29-1.26,3.48-1.8c.56-.25,1.12-.48,1.7-.69,.44-.15,.88-.3,1.33-.43,.72-.2,1.44-.36,2.17-.46,5.66-.8,7.89,4.14,12.54,6.21,2.88,1.28,6.55,.49,8.64-1.85,.8-.9,1.38-1.98,2.15-2.9s1.85-1.72,3.06-1.72c2.23,0,3.2,3.38,5.86,.81,.93-.9,.68-2.66,1.46-3.78,1.78-2.55,7.42-2.98,10.18-2.8,2.58,.17,5.11,.95,7.35,2.22,1.75,1,3.17,2.92,5.02,3.3,2.18,.44,5.24-.67,7.6-.46,2.48,.22,4.89,.85,7.18,1.82,2.76,1.17,4.48,3.23,6.9,4.75,2.52,1.57,4.42,.75,7.54,.47,1.97-.17,4.07-.02,5.7,1.09,2.78,1.88,1.63,4.79,2.46,7.44,.81,2.6,3.2,4.38,5.82,4.97,3.31,.75,6.75-.12,10-1.07,8.84-2.59,14.11-1.85,18.18,6.83,1.63,3.47,3.05,7.23,5.97,9.73,2.74,2.33,6.39,3.21,9.86,4.17s7.1,2.18,9.41,4.94c1.62,1.94,2.19,4.68,1.44,7.08-.4,1.28-1.33,1.77-1.27,2.98,.04,.75,1.25,2.38,1.56,3.2,.07,.18,.15,.38,.23,.56,.32,.76,.8,1.35,1.21,2.05,.28,.46,.38,1.02,.34,1.56Z"/>
  <path class="cls-2" d="M470,271.77s-1.06,2.75-.91,3.79c.15,1.36,.59,2.71,.5,4.07-.16,2.18-1.7,1.91-2.54,3.24-.74,1.17-.23,2.7-1.07,3.84-.74,1.01-2.04,.88-2.76,1.97-.51,.74-.42,2.5-.88,3.44-1,2.01-2.28,3.44-3.53,4.4-1.41,1.08-3.26,1.4-4.64,2.4-1.4,1.02-2,2.32-3.79,2.93-1.64,.56-3.41,.62-5.14,.73-1.23,.08-2.47,.18-3.66,.5-1.06,.29-1.79,.72-2.91,.78-2.39,.14-4.84,0-7.1-.85-2.2-.82-4.16-2.25-6.46-2.72-2.58-.54-.99-4.62-3.14-6.14-.95-.68-.94-2.5-.95-3.51-3.79-1.98-7.62-2.11-11.53-3.39-2.98-.97-2.85-3.53-5.51-5.47-.74-.54-1.5-.92-2.27-1.18-2.21-.75-4.55-.59-6.89-.71-1.38-.07-2.76-.25-4.11-.78-2.79-1.09-5.37-2.81-7.44-5.02-.25-.25-.47-.5-.69-.75-.72-.84-1.37-1.76-2.22-2.47-.82-.69-1.85-.96-2.97-.96-3.25,0-7.38,2.23-9.98,2.86-1.43,.35-2.76,.54-4.02,.61-3.53,.17-6.61-.64-10.39-1.85-.65-.2-1.31-.33-1.94-.38-3.92-.37-7.36,1.8-11.32,2.25-4.69,.54-9.55-.16-13.88-2.14-5.62-2.57-5.55-2.85-8.31-2.92-6.78-.15-8.28,6.23-14.21,5.83-4.95-.33-6.91-4.99-11.11-3.93-3.29,.83-5.36,1.92-5.36,1.92-.59,.31-1.21,.66-2.18,.99-1.17,.39-2.39,.55-3.66,.5-2.71-.12-5.36-1.2-7.45-3.01-.57-.48-1.1-1.01-1.58-1.6-.39-.48-.77-.99-1.16-1.47-1.49-1.88-2.97-3.33-5.3-1.05-.16,.15-.29,.3-.44,.47-1.23,1.46-1.91,3.39-3.1,4.88-.23,.3-.47,.59-.75,.84-.97,.9-2.04,1.67-3.2,2.27-1.77,.93-3.73,1.49-5.72,1.56-1.32,.04-2.93-.35-4.29-.2-.2,.01-.41,.06-.6,.1-1.67,.43-1.32,.63-2.04,2.3-.26,.61-.55,1.18-.9,1.72-1.02,1.65-2.5,3.03-4.29,3.79-1.77,.75-2.47,.65-3.44,2.5-2.01,3.84-3.29,8.12-3.8,12.42-.16,1.33-.25,2.69-.66,3.97-.41,1.28-1.19,2.5-2.39,3.12-1.01,.52-1.59,.4-5.23,.44-4.11,.05-4.64,.29-5.06,.62-1.27,1-.65,2.12-2.19,3.68-.23,.23-1.94,1.92-3.6,1.53-.99-.23-1.33-1.06-2.04-1.84-1.99-2.2-4.24-1.14-7.8-2.59-3.88-1.58-2.8-3.49-7.16-5.41-2.6-1.14-4.23-1.01-5.42-2.7-1.11-1.58-.18-2.4-1.1-3.92-1.96-3.23-7.8-2.18-8.35-4.49-.23-.97,.62-1.51,.3-2.86-.17-.71-1.36-1.44-1.78-2.14-1.07-1.79-.45-3.17-.77-4.99-.35-1.98-1.63-.96-2.71-2.33-.63-.79-.72-3.13-.96-4.14-.37-1.6,.46-2.14,.84-3.46,.39-1.42,.5-3.21,.38-4.67-.1-1.32-.61-1.65-1-2.9-.31-.98,1.54-3.79,1.92-2.88-.98-2.24-1.86-5.18-.18-6.92,.53-.57,1.27-.89,1.81-1.45,.8-.86,.69-1.95,1.26-2.84,.72-1.09,2.08-1.85,3.25-2.37,.88-.39,1.9-.7,2.95-.88,.63-.1,1.27-.16,1.9-.16,.28,0,.56,.01,.83,.03,2.34,.19,4.45,1.23,5.26,3.64,.54,1.62,.38,3.4,.63,5.09,.41,2.8,2.58,5.11,5.41,4.04,.32-.11,.63-.28,.93-.5,.11-.08,.23-.16,.34-.23,3.24-2.03,4.25-6.16,8.34-7.18,2.04-.52,4.59,.44,5.13,2.54,.2,.79,.1,1.62,.31,2.41,.34,1.25,1.43,2.17,2.61,2.61,1.42,.53,2.72,1.07,3.56-.36,1.05-1.8,.91-3.98,2.33-5.73,1.53-1.87,3.83-2.83,5.7-4.33,2.88-2.32,4.67-6.03,4.74-9.81,.04-3.07-.93-6.37,.48-9.07,1.4-2.67,4.77-3.67,7.65-3.11,2.35,.46,4.47,1.76,6.42,3.16,1.76,1.27,3.8,1.29,5.55,2.57,1.02,.74,1.81,1.87,1.97,3.16,.05,.38,.1,.78,.16,1.18,.24,1.88-.2,2.85,1.34,3.97,1.36,.99,2.93,1.87,4.58,2.14,1.71,.29,3.49-.12,4.95-1.07,.88-.57,1.35-1.96,2.31-2.34,1.15-.46,2.88,.45,3.85,1.02,1.06,.63,2.07,1.36,3.24,1.73,1.83,.57,3.46-.07,4.2-1.9,.04-.08,.08-.18,.11-.26,.03-.1,.08-.23,.1-.33,.03-.14,.07-.25,.09-.38,.27-1.35,.23-1.96,.39-2.43,.02-.06,.06-.12,.09-.18,.06-.1,.12-.18,.19-.27,.24-.28,.52-.46,.84-.59,2.44-.87,5.29,.1,7.85-.34,2.16-.38,4.3-1.4,5.62-3.21,1.13-1.53,1.51-3.43,2.3-5.14,.98-2.16,1.98-2.22,3.78-3.41,1.7-1.13,3.21-2.62,5.16-3.28,1.78-.57,3.64-.34,5.4,.29,1.09,.38,2.15,.9,3.13,1.46,2.61,1.51,5.12,3.38,8.06,3.93,5.36,1.01,11.04-3.89,16.14-1.54,1.74,.8,3.01,2.48,3.75,4.3,1.01,2.45,.45,7.52,3.49,8.4,1.6,.46,3.59-.41,5.28-.36,1.98,.07,3.91,.73,5.63,1.74,2.9,1.7,5.19,5.82,8.93,4.7,.36-.11,.7-.27,1.01-.52,.46-.36,.8-.86,1.1-1.37,.16-.25,.3-.52,.46-.78,.1-.17,.2-.33,.3-.5,.27-.42,.6-.78,1.01-1.04,.11-.08,.24-.15,.37-.19,1.5-.56,3.38,.08,4.91,.27,2.16,.26,4.21,1.16,6.43,.96,1.99-.18,3.84-1.1,5.64-2,3.53-1.77,7.19-4.02,10.59-.32,1.69,1.83,2.45,4.36,3.12,6.8,.59,2.15,.73,4.77,2.72,5.9,2.43,1.36,5.62,1.44,8.3,1.68,2.21,.2,4.49,.45,6.55,1.37,1.59,.71,4.21,.89,5.14,2.57,.52,.89,.59,2.1,1.41,2.69,.81,.6,1.9,.26,2.87,.12,3.66-.55,6.18,3.74,9.52,2.78,.07-.02,.12-.03,.18-.06,.51-.18,.9-.43,1.19-.74,1.88-1.97-1.16-4.74,1.15-6.48,2.03-1.52,5-1.77,7.27-.72,3.48,1.6,4.37,5.53,7.25,7.61,.86,.61,1.55,1.1,2.01,1.44,.6,.44,.88,1.19,1.25,1.86,.14,.2,.27,.39,.43,.57,.73,.82,1.95,.91,3.65,.9,2.68-.03,3.12-.27,3.57-.16,.08,.01,.16,.05,.27,.1,.44,.2,.81,.56,1.11,.99,0,0,.12,.17,.24,.36,.04,.08,.09,.18,.13,.29,.02,.04,.04,.1,.06,.17,.02,.06,.04,.11,.07,.19,.16,.51,.28,1.15,.36,1.81,.01,.21,.01,1.63-.01,1.77Z"/>
</svg>