<?xml version="1.0" encoding="utf-8"?>
<!-- Generator: Adobe Illustrator 27.1.1, SVG Export Plug-In . SVG Version: 6.00 Build 0)  -->
<svg version="1.1" id="Joy_Vertical_Logo_RVB_Couleurs"
	 xmlns="http://www.w3.org/2000/svg" xmlns:xlink="http://www.w3.org/1999/xlink" x="0px" y="0px" viewBox="0 0 711.4 425.2"
	 style="enable-background:new 0 0 711.4 425.2;" xml:space="preserve">
<style type="text/css">
	.st0{fill:#FFFFFF;stroke:#386539;stroke-width:3.66;stroke-linecap:round;stroke-linejoin:round;}
	.st1{fill:#8FB652;stroke:#386539;stroke-width:3.66;stroke-linecap:round;stroke-linejoin:round;}
	.st2{fill:#53894B;stroke:#386539;stroke-width:3.66;stroke-linecap:round;stroke-linejoin:round;}
	.st3{fill:#65A259;stroke:#386539;stroke-width:1.22;stroke-miterlimit:10;}
	.st4{fill:#53894B;stroke:#386539;stroke-width:1.22;stroke-miterlimit:10;}
	.st5{fill:#386539;stroke:#386539;stroke-miterlimit:10;}
</style>
<path class="st0" d="M370.9,128.8c-5.4-4.1-11.2-7.4-17.1-10c-10.8-4.8-22.4-7.2-34-7.2c-32.7,0-64.9,20.2-82.4,60.3
	c1,24.5-2,51.4-3.2,64.2c-1.4,14.3-3,30-6,45.4c3.2,13.9,8.3,26,14.9,36.4h0c4.5,4.2,9.3,7.8,14.5,10.8c0.6,0.3,1.1,0.7,1.7,1
	c0.2,0.1,0.3,0.2,0.5,0.2c1.2,0.6,5.5,2.7,11.8,4.9c0.2,0.1,0.5,0.2,0.7,0.2c2,0.7,4.3,1.4,6.6,2c0.4,0.1,0.7,0.2,1.1,0.3
	c0.4,0.1,0.7,0.2,1,0.3c0.5,0.1,1,0.3,1.6,0.4c1.2,0.3,2.5,0.6,3.9,0.8c0.4,0.1,0.8,0.2,1.2,0.2c1.3,0.2,2.5,0.4,3.8,0.6
	c1.7,0.2,3.4,0.4,5.1,0.6h0c1.2,0.1,2.5,0.2,3.7,0.2c0.7,0,1.4,0,2,0c54.9,0,96.1-48.8,96.1-129.4c0-5-0.2-9.8-0.6-14.5
	 M347.7,227.6c-5,44.6-21.8,82.8-41.1,80.1c-6.7-1-12.6-7.5-17-17.8c-6.3-15-9.4-38-6.5-63.3c6.1-54.3,26.6-84.5,41.8-82.3
	c0.9,0.1,1.8,0.3,2.7,0.6C343.3,150.2,352.9,181.9,347.7,227.6L347.7,227.6z"/>
<path class="st1" d="M610.8,178.3c-23.7,25.6-39.4,57.9-53.4,84.6c-17.3,33.1-50.3,96.4-91.5,97.6c-22,0.6-43.8-16.5-47.9-29.4
	c9,6.6,20.9,11.5,32.8,11.1c41.2-1.2,74.2-64.5,91.5-97.6c12.9-24.6,28.6-55.5,48.2-78.7c-0.4,2.4,18.3,0.6,18.6,0.9
	C609.2,166.9,610.6,178,610.8,178.3L610.8,178.3z"/>
<path class="st0" d="M219.1,217.8c-1.4,14.3-3,30-6,45.4c-5.7,29.5-16.8,57.6-42.2,71.6c-20.4,11.1-43.5,9.6-47.2,9.4
	c-7.4-0.6-29.1-2.5-48.8-19c-0.5-0.5-1.1-1-1.7-1.5c-2.6-4.3-5-9.2-6.9-14.8c-6.2-18.2-9.9-51.5,7.6-62.9c5.3-3.5,12.2-4.7,18.6-4.3
	c8,0.5,15.1,3.7,17.2,8.3c2.7,5.9-4.8,10.1-6.7,24.3c-0.3,1.9-1.3,9.3,0.3,17c1.1,5.3,3.4,10.7,8.2,14.5c8.9,7.1,21.9,5.8,30.3,2
	c16-7.3,21.8-26.3,25.6-43c13.4-58.9-6.5-83.7-2.1-119.8c2.2-17.9,33.8-25.8,49.9-23.8c0.8,0.1,1.6,0.3,2.4,0.5
	c2.9,8.9,4.3,20.2,4.8,32C223.3,178.1,220.4,205,219.1,217.8L219.1,217.8z"/>
<path class="st2" d="M234.2,236.1c-1.4,14.3-3,30-6,45.4c-0.9,4.5-1.9,9-3,13.4c-6.4,24.4-17.6,46.4-39.1,58.2
	c-20.4,11.1-43.5,9.6-47.2,9.4c-7.6-0.6-29.8-2.5-48.8-19c-9.6-8.4-17.1-19.5-16.8-19.7c0.1-0.1,1.4,1.2,1.7,1.5
	c4.5,4.4,23.2,17.1,48.8,19c3.8,0.3,26.9,1.8,47.2-9.4c25.4-13.9,36.5-42.1,42.2-71.6c3-15.3,4.6-31.1,6-45.4
	c1.3-12.8,4.2-39.7,3.2-64.2c-0.5-11.8-1.8-23.1-4.8-32c6.4,1.8,10.8,7.2,13.9,14.8c3.8,9.4,5.5,22,6,35.4
	C238.4,196.4,235.5,223.2,234.2,236.1L234.2,236.1z"/>
<path class="st2" d="M409.9,193.7C409.9,193.7,409.8,193.7,409.9,193.7C385,149.6,371.7,128,370,129c-1.8,0.9,7.5,23.5,27.9,67.7
	c0.3,3,0.6,8.1,0.6,14.5c0,80.6-41.2,129.4-96.1,129.4c-0.8,0-1.5,0-2.3,0c-1.2,0-2.4-0.1-3.5-0.2h0c-1.7-0.1-3.4-0.3-5.1-0.6
	c-1.3-0.2-2.6-0.4-3.8-0.6c-0.4-0.1-0.8-0.2-1.2-0.2c-1.3-0.3-2.6-0.5-3.9-0.8c-0.5-0.1-1-0.3-1.6-0.4c-0.4-0.1-0.7-0.2-1-0.3
	c-0.4-0.1-0.7-0.2-1.1-0.3c-2.4-0.6-4.6-1.3-6.6-2c-0.2-0.1-0.5-0.2-0.7-0.2c-6.2-2.2-10.5-4.3-11.8-4.9c-0.2-0.1-0.3-0.2-0.5-0.2
	c-0.6-0.3-1.1-0.6-1.7-1c-6-3.5-10.7-7.1-13.9-10c4.3,6.8,13.8,19.8,30.8,29.2c1.8,1,21.8,10.8,43.1,10.8
	c54.9,0,96.1-48.8,96.1-129.4C413.6,216.4,412.3,204.5,409.9,193.7L409.9,193.7z"/>
<path class="st0" d="M582.5,176.1c-1.5,1.9-3.5,4.8-7.5,10.6c0,0-5.9,8.8-11.4,17.8c-7.5,12.4-10.9,18.8-21.6,39.5
	c-16.8,32.5-49.6,96.4-91.5,97.6c-11.9,0.3-23.8-4.5-32.8-11.1c-0.7-2.1-0.9-4-0.6-5.8c2.4-13.7,35.4-8.2,51.3-32.4
	c14.2-21.7,3.6-50.3,2-54.6c-4.5-11.7-11.5-20.6-19.3-27.3c-17.7-15.2-38.9-19.1-41-19.4v0c-2.9-2.7-9.9-9.8-8.2-12.6
	c1.3-2.2,6.7-1.4,8.3-1.2c4.2,0.6,6.8,2.2,11.5,4.7c8,4.3,12,6.4,13.1,5.7c5.2-3.1-12.2-37.7-8.6-39.8c3.7-2.2,24.9,32.8,33.4,29.2
	c6.9-2.9-1.4-28.1,8.1-33c5.1-2.6,14,1.3,16.5,7c2.4,5.5-2.1,10.1-5,18.3c-5.1,14.6,1.3,29.1,11.1,51.2
	c7.8,17.4,11.6,26.7,17.1,26.5c11.6-0.3,30-30.7,28.8-61.5c-0.8-19.8-9.5-35.3-1.8-41.8c3.4-2.9,9.4-3.6,12.5-1.2
	c2.6,1.9,2.5,5.5,2.8,14.6c0.5,13.2,0.8,19.8,2.2,20.5c2.4,1.3,9.2-3.2,29.8-31.4c0.3,6.1,1.7,12.5,5.9,14.4
	c2.5,1.2,4.8,0.2,5.5,1.5C594.2,164.3,589.1,167.9,582.5,176.1L582.5,176.1z"/>
<path class="st3" d="M648,144.3c0,1.9,0.4,4,0.3,5.7c-0.1,1.2-0.3,2.2-0.8,3.3c-0.6,1.2,0.1,1.9,0.9,2.9c0.4,0.5-1-0.9-1.2-1.5
	c0-0.2,0-0.4,0-0.6c0-0.6-0.2-1.2-0.3-1.7c0-0.1,0-0.1-0.1-0.2c0-0.2,0-0.4,0-0.6c0-0.1,0-0.2,0-0.3c0-0.5,0-1-0.3-1.5
	c-0.4-0.7-0.8-1.3-1.1-2c-0.1-0.2-0.2-0.4-0.2-0.5c-0.5-1.2-0.9-2.5-1.8-3.5c-0.6-0.6-1.4-1.1-1.7-1.9c-0.2-0.6-0.1-1.4-0.3-2
	c-0.7-3.8-4.3-3.3-7.2-3.5c-3.7-0.2-7.3-0.7-10.9-1.4c-7.5-1.4-14.7-3.6-21.9-6.1c-14.3-5.1-28.2-11.5-42.7-16
	c-32.7-10.1-67.4-9.7-101.5-9.2c-12.8,0.2-26.2,0.5-37.5,6.7c-6.5,3.6-11.8,8.9-18,12.9c-6.3,4.1-13.1,6-20.5,4.5
	c-0.5,1-0.7,2.3-0.6,3.5c0,0.3,0,0.5,0.1,0.8c0,0.1,0,0.1,0,0.1c0,0,0,0.1,0,0.1c0,0,0,0,0,0c0,0,0,0-0.1-0.1
	c-0.5-0.3-1.2,0.2-1.8-0.3c-0.7-0.6-0.2-1.4-0.9-1.9c-0.6-0.5-1.2,0.2-2.6,0c0,0-0.3,0.1-0.7,0.1c-0.2,0-0.4,0-0.6,0h-0.3
	c-0.1,0-0.3,0-0.5,0c-0.1,0-0.2,0-0.2,0c-0.1,0-0.3-0.1-0.4-0.1c-0.1,0-0.2-0.1-0.2-0.1c0,0-0.1,0-0.1-0.1c0,0,0,0,0,0
	c-0.2-0.1-0.2-0.2-0.5-0.3c-4.2-2-1.2-13,2.1-15c2.2-1.3,5.5-0.3,7.5-1.6c2.5-1.6,1.8-6.8,4.5-9.2c2.3-2.1,4.5-1.2,7.1-1.8
	c2.1-0.5,4.8-1.2,5.7-3.4c0.9-2,0.3-4.4,1.2-6.3c0.7-1.5,2.2-2.5,3.8-3c3.8-1.1,7.7-1.2,11.5-2.6c1.4-0.5,3.2-1.5,4-2.8
	c1-1.7,0.1-3.6,2.4-4.7c3.4-1.6,7,0.8,10.5-0.9c3.3-1.6,5.6-5,9.1-6.4c3.7-1.4,7.5-1.8,11.4-1.3c2.7,0.3,4.4-1.2,6.4-2.8
	c2.8-2.3,3.8-3.6,7.9-2.2c1.8,0.6,3.6,1.4,5.5,1.6c3.8,0.4,4.5-2.9,8-0.7c3.3,2.1,4.1,2.2,7.3,0.2c2.6-1.6,6.6-4.3,9.8-3.8
	c2.9,0.5,3.5,4.1,7.4,4c2.4,0,4.8-1,7.2-1.1c2.6-0.1,4.8,1.5,7.3,1.3c1.7-0.1,3.5-1.9,5.3-1.1c2.6,1.2,2.1,5.6,5.9,3
	c1.2-0.8,1.4-2.2,2.6-2.9c1.5-0.9,4.4-0.7,6-0.2c2.5,0.8,4.2,3,6.3,4.3c2.3,1.3,4.7,2,7.2,2.4s4.3-0.7,6.6-1.5
	c2.4-0.8,4.8-1.2,7.2-0.3c1.3,0.5,2.6,1.3,3.9,1.9c2.8,1.2,6,0,8.9,1.6c1.8,1.1,2,3.1,3.4,4.5c1,1.1,3.2,1.9,4.7,2
	c1.8,0.1,3.4-0.9,5.2-0.7c2,0.2,6.7,1.5,8.1,3.1c1.6,1.6,0.8,4,3.3,4.7c3,0.8,5.5,3.1,6.1,6.2c0.1,0.7,0.2,1.4,0.4,2
	c0.7,1.9,3.2,2,4.9,1.7c1-0.2,2.1-0.4,3.1,0c1,0.3,1.2,0.9,1.6,1.8c0.5,1,0.9,2.1,1.6,3c0.6,0.7,1.4,1,1.9,1.7
	c1.5,2,1.5,4.3,3.7,5.8c1.5,1,4,0.8,5.3,2s1.4,2.6,3.2,3.5c1.5,0.8,3.2,1.2,4.6,2.2c3.5,2.4,0.9,5.2,1.9,8.4
	c0.7,2.3,2.7,2.6,4.1,4.1c1.2,1.3,1.9,3.7,2.5,5.4c0.6,1.7,0.8,3.5,0.2,5.2c-0.2,0.7-0.5,1.4-0.7,2.1
	C648.1,143.2,648,143.7,648,144.3L648,144.3z"/>
<path class="st4" d="M649.2,152.5c0,0.3-0.1,0.6-0.2,0.9c-7-0.3-14.7,2.6-21.9,2.8c-7.9,0.3-15.8-0.3-23.6-1.4
	c-15.6-2.1-31-5.9-46.4-8.9c-51.2-9.8-104.3-9.2-155.2,1.9c-0.7,2.1,0.3,4.8,2.4,5.8c-8.9,3.2-18.3,4.7-27.7,4.5
	c-3.3-0.1-6.9-0.5-9.4-2.6c-4-3.3-4-9.6-2.3-14.5c1.1-3.3,2.8-6.3,3.9-9.6c0.7-2.1,0.6-5.6,2.7-6.8c1.1-0.6,2.5-0.6,3.8-0.7
	c2.3-0.1,4.7-0.3,6.7-1.4c4-2.2,3.4-10,7.8-10.5c1.5-0.2,3.1-0.2,4.6-0.8c2.1-0.9,2-3.1,3.6-4c1.1-0.6,2.3-0.5,3.5-0.6
	c1.1-0.1,2.3-0.4,3.4-0.9c1.8-0.7,3.4-1.8,4.7-3.3c1.1-1.2,2.5-1.9,2.7-3.7c0.1-1.1,0-2.3,0.4-3.4c0.5-1.3,1.7-2.2,3.1-2.6
	c1.1-0.3,2.4-0.4,3.5-0.4c0.9,0,1.2,0.4,1.8,1.1c0.2,0.2,0.4,0.4,0.5,0.5c0.5,0.4,1,0.6,1.7,0.4c0.1,0,0.1-0.1,0.2-0.1
	c0.6-0.3,0.8-0.8,1-1.4c0.2-0.8,0-1.2,0.6-1.8c0.8-0.6,2.1-1.1,3-1.5c1.2-0.6,2.5-1.2,3.8-1.1c1,0.1,2,0.6,2.9,1.1
	c1,0.6,2.1,1.2,3.2,1.8c1,0.6,2.1,1.5,3.3,1.1c1.4-0.4,2.6-1.5,4-2c1.6-0.6,3.2-1,4.9-1.1c1.1-0.1,2.1-0.1,3.2-0.1
	c0.9,0,1.4,0.2,2.3,0.4c1.9,0.5,3.9,0.2,5.7-0.4c2.1-0.7,4.1-1.6,6.2-2.2c3.3-1,6.3,1.9,8.5,4c1.8,1.7,3.6,3.5,5.9,4.5
	c1.3,0.6,2.2-0.3,3.4-0.9s2.3-1.2,3.5-1.8c0.5-0.2,1.1-0.5,1.7-0.7c0.4-0.1,0.9-0.3,1.3-0.4c0.7-0.2,1.4-0.4,2.2-0.5
	c5.6-0.8,7.8,4.1,12.5,6.2c2.9,1.3,6.5,0.5,8.6-1.8c0.8-0.9,1.4-2,2.1-2.9s1.8-1.7,3-1.7c2.2,0,3.2,3.4,5.8,0.8
	c0.9-0.9,0.7-2.6,1.5-3.8c1.8-2.5,7.4-3,10.1-2.8c2.6,0.2,5.1,0.9,7.3,2.2c1.7,1,3.2,2.9,5,3.3c2.2,0.4,5.2-0.7,7.5-0.5
	c2.5,0.2,4.9,0.9,7.1,1.8c2.7,1.2,4.4,3.2,6.8,4.7c2.5,1.6,4.4,0.7,7.5,0.5c2-0.2,4,0,5.7,1.1c2.8,1.9,1.6,4.8,2.4,7.4
	c0.8,2.6,3.2,4.4,5.8,4.9c3.3,0.7,6.7-0.1,9.9-1.1c8.8-2.6,14-1.8,18,6.8c1.6,3.4,3,7.2,5.9,9.6c2.7,2.3,6.3,3.2,9.8,4.1
	c3.5,0.9,7,2.2,9.3,4.9c1.6,1.9,2.2,4.6,1.4,7c-0.4,1.3-1.3,1.8-1.3,3c0,0.8,1.2,2.4,1.5,3.2c0.1,0.2,0.2,0.4,0.2,0.6
	c0.3,0.8,0.8,1.3,1.2,2C649.1,151.4,649.2,152,649.2,152.5L649.2,152.5z"/>
<path class="st5" d="M650.3,157.7c0,0-1,2.7-0.9,3.8c0.2,1.4,0.6,2.7,0.5,4c-0.2,2.2-1.7,1.9-2.5,3.2c-0.7,1.2-0.2,2.7-1.1,3.8
	c-0.7,1-2,0.9-2.7,2c-0.5,0.7-0.4,2.5-0.9,3.4c-1,2-2.3,3.4-3.5,4.4c-1.4,1.1-3.2,1.4-4.6,2.4c-1.4,1-2,2.3-3.8,2.9
	c-1.6,0.5-3.4,0.6-5.1,0.7c-1.2,0.1-2.5,0.2-3.6,0.5c-1.1,0.3-1.8,0.7-2.9,0.8c-2.4,0.1-4.8,0-7-0.8c-2.2-0.8-4.1-2.2-6.4-2.7
	c-2.6-0.5-1-4.6-3.1-6.1c-0.9-0.7-0.9-2.5-0.9-3.5c-3.8-2-7.6-2.1-11.4-3.4c-3-1-2.8-3.5-5.5-5.4c-0.7-0.5-1.5-0.9-2.3-1.2
	c-2.2-0.8-4.5-0.6-6.8-0.7c-1.4-0.1-2.7-0.2-4.1-0.8c-2.8-1.1-5.3-2.8-7.4-5c-0.2-0.2-0.5-0.5-0.7-0.8c-0.7-0.8-1.4-1.7-2.2-2.5
	c-0.8-0.7-1.8-1-3-1c-3.2,0-7.3,2.2-9.9,2.8c-1.4,0.4-2.7,0.5-4,0.6c-3.5,0.2-6.6-0.6-10.3-1.8c-0.7-0.2-1.3-0.3-1.9-0.4
	c-3.9-0.4-7.3,1.8-11.2,2.2c-4.7,0.5-9.5-0.2-13.8-2.1c-5.6-2.5-5.5-2.8-8.2-2.9c-6.7-0.1-8.2,6.2-14.1,5.8c-4.9-0.3-6.9-5-11-3.9
	c-3.3,0.8-5.3,1.9-5.3,1.9c-0.6,0.3-1.2,0.7-2.2,1c-1.2,0.4-2.4,0.5-3.6,0.5c-2.7-0.1-5.3-1.2-7.4-3c-0.6-0.5-1.1-1-1.6-1.6
	c-0.4-0.5-0.8-1-1.2-1.5c-1.5-1.9-3-3.3-5.3-1c-0.2,0.1-0.3,0.3-0.4,0.5c-1.2,1.5-1.9,3.4-3.1,4.9c-0.2,0.3-0.5,0.6-0.8,0.8
	c-1,0.9-2,1.6-3.2,2.3c-1.8,0.9-3.7,1.5-5.7,1.5c-1.3,0-2.9-0.4-4.3-0.2c-0.2,0-0.4,0.1-0.6,0.1c-1.7,0.4-1.3,0.6-2,2.3
	c-0.3,0.6-0.5,1.2-0.9,1.7c-1,1.6-2.5,3-4.3,3.8c-1.8,0.8-2.5,0.6-3.4,2.5c-2,3.8-3.3,8.1-3.8,12.3c-0.2,1.3-0.2,2.7-0.7,3.9
	c-0.4,1.3-1.2,2.5-2.4,3.1c-1,0.5-1.6,0.4-5.2,0.4c-4.1,0-4.6,0.3-5,0.6c-1.3,1-0.6,2.1-2.2,3.7c-0.2,0.2-1.9,1.9-3.6,1.5
	c-1-0.2-1.3-1-2-1.8c-2-2.2-4.2-1.1-7.7-2.6c-3.9-1.6-2.8-3.5-7.1-5.4c-2.6-1.1-4.2-1-5.4-2.7c-1.1-1.6-0.2-2.4-1.1-3.9
	c-2-3.2-7.8-2.2-8.3-4.5c-0.2-1,0.6-1.5,0.3-2.8c-0.2-0.7-1.4-1.4-1.8-2.1c-1.1-1.8-0.5-3.1-0.8-5c-0.4-2-1.6-1-2.7-2.3
	c-0.6-0.8-0.7-3.1-1-4.1c-0.4-1.6,0.5-2.1,0.8-3.4c0.4-1.4,0.5-3.2,0.4-4.6c-0.1-1.3-0.6-1.6-1-2.9c-0.3-1,1.5-3.8,1.9-2.9
	c-1-2.2-1.8-5.1-0.2-6.9c0.5-0.6,1.3-0.9,1.8-1.4c0.8-0.9,0.7-1.9,1.2-2.8c0.7-1.1,2.1-1.8,3.2-2.4c0.9-0.4,1.9-0.7,2.9-0.9
	c0.6-0.1,1.3-0.2,1.9-0.2c0.3,0,0.6,0,0.8,0c2.3,0.2,4.4,1.2,5.2,3.6c0.5,1.6,0.4,3.4,0.6,5.1c0.4,2.8,2.6,5.1,5.4,4
	c0.3-0.1,0.6-0.3,0.9-0.5c0.1-0.1,0.2-0.2,0.3-0.2c3.2-2,4.2-6.1,8.3-7.1c2-0.5,4.6,0.4,5.1,2.5c0.2,0.8,0.1,1.6,0.3,2.4
	c0.3,1.2,1.4,2.2,2.6,2.6c1.4,0.5,2.7,1.1,3.5-0.4c1-1.8,0.9-4,2.3-5.7c1.5-1.9,3.8-2.8,5.7-4.3c2.9-2.3,4.6-6,4.7-9.7
	c0-3.1-0.9-6.3,0.5-9c1.4-2.6,4.7-3.6,7.6-3.1c2.3,0.5,4.4,1.7,6.4,3.1c1.7,1.3,3.8,1.3,5.5,2.6c1,0.7,1.8,1.9,2,3.1
	c0,0.4,0.1,0.8,0.2,1.2c0.2,1.9-0.2,2.8,1.3,3.9c1.3,1,2.9,1.8,4.5,2.1c1.7,0.3,3.5-0.1,4.9-1.1c0.9-0.6,1.3-1.9,2.3-2.3
	c1.1-0.5,2.9,0.4,3.8,1c1,0.6,2.1,1.4,3.2,1.7c1.8,0.6,3.4-0.1,4.2-1.9c0-0.1,0.1-0.2,0.1-0.3c0-0.1,0.1-0.2,0.1-0.3
	c0-0.1,0.1-0.2,0.1-0.4c0.3-1.3,0.2-1.9,0.4-2.4c0-0.1,0.1-0.1,0.1-0.2c0.1-0.1,0.1-0.2,0.2-0.3c0.2-0.3,0.5-0.5,0.8-0.6
	c2.4-0.9,5.2,0.1,7.8-0.3c2.2-0.4,4.3-1.4,5.6-3.2c1.1-1.5,1.5-3.4,2.3-5.1c1-2.1,2-2.2,3.8-3.4c1.7-1.1,3.2-2.6,5.1-3.2
	c1.8-0.6,3.6-0.3,5.4,0.3c1.1,0.4,2.1,0.9,3.1,1.4c2.6,1.5,5.1,3.4,8,3.9c5.3,1,11-3.9,16-1.5c1.7,0.8,3,2.5,3.7,4.3
	c1,2.4,0.5,7.5,3.5,8.3c1.6,0.5,3.6-0.4,5.2-0.4c2,0.1,3.9,0.7,5.6,1.7c2.9,1.7,5.2,5.8,8.9,4.7c0.4-0.1,0.7-0.3,1-0.5
	c0.5-0.4,0.8-0.9,1.1-1.4c0.2-0.2,0.3-0.5,0.5-0.8c0.1-0.2,0.2-0.3,0.3-0.5c0.3-0.4,0.6-0.8,1-1c0.1-0.1,0.2-0.1,0.4-0.2
	c1.5-0.6,3.3,0.1,4.9,0.3c2.2,0.3,4.2,1.1,6.4,0.9c2-0.2,3.8-1.1,5.6-2c3.5-1.8,7.1-4,10.5-0.3c1.7,1.8,2.4,4.3,3.1,6.7
	c0.6,2.1,0.7,4.7,2.7,5.9c2.4,1.4,5.6,1.4,8.2,1.7c2.2,0.2,4.5,0.4,6.5,1.4c1.6,0.7,4.2,0.9,5.1,2.6c0.5,0.9,0.6,2.1,1.4,2.7
	c0.8,0.6,1.9,0.3,2.8,0.1c3.6-0.5,6.1,3.7,9.5,2.8c0.1,0,0.1,0,0.2-0.1c0.5-0.2,0.9-0.4,1.2-0.7c1.9-2-1.2-4.7,1.1-6.4
	c2-1.5,5-1.8,7.2-0.7c3.5,1.6,4.3,5.5,7.2,7.5c0.8,0.6,1.5,1.1,2,1.4c0.6,0.4,0.9,1.2,1.2,1.8c0.1,0.2,0.3,0.4,0.4,0.6
	c0.7,0.8,1.9,0.9,3.6,0.9c2.7,0,3.1-0.3,3.5-0.2c0.1,0,0.2,0,0.3,0.1c0.4,0.2,0.8,0.6,1.1,1c0,0,0.1,0.2,0.2,0.4
	c0,0.1,0.1,0.2,0.1,0.3c0,0,0,0.1,0.1,0.2c0,0.1,0,0.1,0.1,0.2c0.2,0.5,0.3,1.1,0.4,1.8C650.3,156.1,650.3,157.5,650.3,157.7
	L650.3,157.7z"/>
</svg>
