<?xml version="1.0" encoding="UTF-8"?>
<svg id="Calque_2" data-name="Calque 2" xmlns="http://www.w3.org/2000/svg" viewBox="0 0 71.37 71.37">
  <defs>
    <style>
      .cls-1 {
        fill: #fff;
        stroke: #386539;
        stroke-miterlimit: 10;
        stroke-width: 2px;
      }
    </style>
  </defs>
  <g id="Icones">
    <g id="emporter_vert_trait" data-name="emporter vert trait">
      <rect class="cls-1" x="32.91" y="31.29" width="5.56" height="8.79" rx="1.06" ry="1.06"/>
      <g>
        <circle class="cls-1" cx="35.69" cy="35.69" r="34.69" transform="translate(-13.43 24.09) rotate(-31.72)"/>
        <path class="cls-1" d="M47.78,36.31v19.21H18.14v-19.58l3.08-10.6h0s.09,0,.13,0c5.2,.09,10.39,.19,15.59,.28l-.58,.62c-.7,1.02-.5,2.37,.36,3.08,.73,.6,1.83,.65,2.69,.09,1.52-1.21,3.04-2.42,4.56-3.63l.7-.02h.01l3.09,10.54Z"/>
        <path class="cls-1" d="M51.38,22.53h-2.51c.03,.11,.32,1.36-.55,2.33-.69,.78-1.63,.83-1.8,.84l-1.83,.07-.7,.02c-1.52,1.21-3.04,2.42-4.56,3.63-.86,.56-1.96,.51-2.69-.09-.87-.71-1.06-2.06-.36-3.08l.58-.62,.06-.06,4.16-4.4-11.51-.36,6.62-3.44h15.11v5.17Z"/>
        <polygon class="cls-1" points="44.69 25.77 41.35 36.13 41.35 55.52 47.78 55.52 47.78 36.31 44.69 25.77"/>
        <path class="cls-1" d="M41.17,21.17l-4.16,4.4c-5.22-.07-10.43-.15-15.65-.22-.04,0-.09,0-.13,0-.18,0-.36,0-.54,0-.14-.09-1.11-.71-1.27-1.9-.14-1.01,.36-2.04,1.27-2.63h8.97l11.51,.36Z"/>
      </g>
    </g>
  </g>
</svg>