<?xml version="1.0" encoding="UTF-8"?>
<svg id="Calque_2" data-name="Calque 2" xmlns="http://www.w3.org/2000/svg" viewBox="0 0 71.87 72.06">
  <defs>
    <style>
      .cls-1 {
        fill: #fff;
        stroke: #386539;
        stroke-miterlimit: 10;
        stroke-width: 2px;
      }
    </style>
  </defs>
  <g id="Icones">
    <g id="facebook_vert_trait" data-name="facebook vert trait">
      <circle class="cls-1" cx="35.94" cy="35.94" r="34.94"/>
      <path class="cls-1" d="M29.9,70.35c.01-8.32,.03-16.63,.04-24.95h-8.52v-9.82h8.52v-9.06s-1.01-15.06,20.51-11.07v8.68c-2.1,.03-4.2,.06-6.29,.08-.43,.1-1.08,.31-1.72,.8-1.32,.99-1.67,2.41-1.76,2.85v7.84l9.48,.08-1.47,9.77-7.97-.04c-.03,8.34-.06,16.69-.1,25.03-1.75,.36-4.08,.64-6.78,.43-1.48-.12-2.81-.36-3.94-.64Z"/>
    </g>
  </g>
</svg>