<?xml version="1.0" encoding="UTF-8"?>
<svg id="Calque_2" data-name="Calque 2" xmlns="http://www.w3.org/2000/svg" viewBox="0 0 71.34 71.56">
  <defs>
    <style>
      .cls-1 {
        fill: #fff;
        stroke: #386539;
        stroke-miterlimit: 10;
        stroke-width: 2px;
      }
    </style>
  </defs>
  <g id="Icones">
    <g id="téléphone_vert_trait" data-name="téléphone vert trait">
      <ellipse class="cls-1" cx="35.67" cy="35.78" rx="34.67" ry="34.78"/>
      <path class="cls-1" d="M26.13,17.07c.67,.97,1.71,2.43,3.08,4.15,2.09,2.63,2.88,3.26,2.83,4.41-.09,1.95-2.49,2.13-3.03,4.22-.35,1.36,.37,2.41,4.16,7.63,4.01,5.53,4.86,6.65,6.32,6.68,1.86,.03,2.63-1.76,4.57-1.37,.75,.15,1.38,.57,3.03,2.47,1.06,1.22,2.46,2.95,3.96,5.2-1.02,1.47-2.49,2.99-4.56,3.67-8.57,2.82-18.84-11.61-19.58-12.68-1.08-1.54-10.1-14.79-5.09-21.49,1.22-1.63,2.95-2.44,4.31-2.89Z"/>
    </g>
  </g>
</svg>