<?xml version="1.0" encoding="UTF-8"?>
<svg id="Calque_2" data-name="Calque 2" xmlns="http://www.w3.org/2000/svg" viewBox="0 0 71.91 71.91">
  <defs>
    <style>
      .cls-1 {
        fill: #fff;
        stroke: #386539;
        stroke-miterlimit: 10;
        stroke-width: 2px;
      }
    </style>
  </defs>
  <g id="Icones">
    <g id="whatsapp_vert_trait" data-name="whatsapp vert trait">
      <circle class="cls-1" cx="35.96" cy="35.96" r="34.96"/>
      <path class="cls-1" d="M54.4,33.64c0,10.14-8.22,18.35-18.35,18.35-3.3,0-6.4-.87-9.08-2.4-3.14,.77-6.29,1.55-9.44,2.32,.95-2.92,1.89-5.83,2.83-8.75-.62-1.02-1.36-2.47-1.91-4.32,0,0-.75-2.54-.75-5.2,0-10.14,8.22-18.35,18.35-18.35s18.35,8.22,18.35,18.35Z"/>
      <path class="cls-1" d="M28.96,24.08c-1.31,0-2.22,1.46-2.47,1.85-1.05,1.68-.83,3.53-.73,4.3,.77,5.93,7.26,9.85,8.2,10.41,2.38,1.4,6.07,3.57,9.15,2.06,1.87-.92,3.52-3.2,3.04-4.77-.19-.62-.82-1.1-2.07-2.06-1.32-1.02-1.99-1.52-2.69-1.4-1.18,.21-1.08,1.81-2.34,2.29-1.28,.48-2.79-.64-4.34-1.8-1.54-1.15-3.15-2.35-3.03-3.77,.1-1.24,1.42-1.47,1.42-2.75,0-.88-.62-1.52-1.7-2.65-1.06-1.1-1.61-1.68-2.43-1.69Z"/>
    </g>
  </g>
</svg>