<?xml version="1.0" encoding="UTF-8"?>
<svg id="Calque_2" data-name="Calque 2" xmlns="http://www.w3.org/2000/svg" viewBox="0 0 71.37 71.37">
  <defs>
    <style>
      .cls-1 {
        fill: #fff;
        stroke: #386539;
        stroke-miterlimit: 10;
        stroke-width: 2px;
      }
    </style>
  </defs>
  <g id="Icones">
    <g id="wifi_vert_trait" data-name="wifi vert trait">
      <circle class="cls-1" cx="35.69" cy="35.69" r="34.69" transform="translate(-13.43 24.09) rotate(-31.72)"/>
      <g>
        <circle class="cls-1" cx="35.64" cy="50.91" r="4.57"/>
        <path class="cls-1" d="M43.6,43.66c-.98-.77-2.55-1.77-4.67-2.32-1.02-.27-4.03-.92-7.51,.31-1.66,.59-2.87,1.41-3.61,2-.22,.08-.99,.33-1.84,0-.83-.32-1.54-1.1-1.64-2.1-.12-1.24,.77-2.06,.87-2.14,1.22-.91,4.96-3.44,10.37-3.48,5.18-.04,8.83,2.22,10.11,3.09,.24,.19,1.01,.87,1.19,2,.09,.53,.01,.98-.06,1.27-.11,.26-.31,.61-.68,.92-1.02,.84-2.37,.49-2.53,.44Z"/>
        <path class="cls-1" d="M50.94,36.67c-1.99-1.7-6.12-4.7-12.01-5.46-.75-.1-3.7-.44-7.51,.31-5.3,1.05-9.02,3.57-10.95,5.09-.22,.08-.99,.33-1.84,0-.83-.32-1.54-1.1-1.64-2.1-.12-1.24,.77-2.06,.87-2.14,1.26-1.11,7.43-6.8,17.71-6.57,8.39,.19,14.58,4.1,17.45,6.23,.24,.19,1.01,.87,1.19,2,.09,.53,.01,.98-.06,1.27-.11,.26-.31,.61-.68,.92-1.02,.84-2.37,.49-2.53,.44Z"/>
        <path class="cls-1" d="M58.71,29.76c-3.44-2.97-10.34-7.95-19.78-8.68-.86-.07-3.71-.25-7.51,.31-8.86,1.32-15.21,5.56-18.65,8.31-.22,.08-.99,.33-1.84,0-.83-.32-1.54-1.1-1.64-2.1-.04-.43,.03-1.13,.87-2.14,2.19-2.65,8-5.45,9.22-6.03,3.07-1.39,8.26-3.27,14.92-3.52,6.45-.24,11.28,1.15,12.86,1.64,7.12,2.22,11.98,6.11,14.65,8.63,.53,1.1,.28,2.39-.57,3.13-.68,.58-1.65,.75-2.53,.44Z"/>
      </g>
    </g>
  </g>
</svg>